<?xml version="1.0" encoding="iso-8859-1"?>
<!-- Generator: Adobe Illustrator 19.0.0, SVG Export Plug-In . SVG Version: 6.00 Build 0)  -->
<svg version="1.1" id="Layer_1" xmlns="http://www.w3.org/2000/svg" xmlns:xlink="http://www.w3.org/1999/xlink" x="0px" y="0px"
	 viewBox="0 0 512 512" style="enable-background:new 0 0 512 512;" xml:space="preserve">
<g>
	<polygon style="fill:#FF9600;" points="256,10.666 201.496,56.019 130.747,51.365 113.309,120.09 53.333,157.911 79.623,223.763 
		53.333,289.614 113.309,327.435 130.747,396.16 201.496,391.505 256,436.858 310.501,391.505 381.254,396.16 398.688,327.435 
		458.668,289.614 432.376,223.763 458.668,157.911 398.688,120.09 381.254,51.365 310.501,56.019 	"/>
	<polygon style="fill:#FCD73F;" points="256,66.171 215.694,99.709 163.371,96.271 150.476,147.095 106.121,175.064 
		125.563,223.763 106.121,272.461 150.476,300.43 163.371,351.255 215.694,347.813 256,381.349 296.304,347.813 348.628,351.255 
		361.523,300.43 405.877,272.461 386.436,223.763 405.877,175.064 361.523,147.095 348.628,96.271 296.304,99.709 	"/>
</g>
<g>
	<path style="fill:#000003;" d="M443.862,223.763l24.713-61.895c1.907-4.777,0.134-10.235-4.217-12.978l-56.377-35.549
		l-16.385-64.597c-1.265-4.986-5.913-8.352-11.04-8.021l-66.505,4.374L262.822,2.468c-3.954-3.292-9.692-3.29-13.646,0
		l-51.229,42.629l-66.501-4.374c-5.133-0.334-9.774,3.036-11.039,8.021l-16.391,64.597l-56.375,35.549
		c-4.351,2.743-6.124,8.202-4.217,12.978l24.712,61.895l-24.712,61.896c-1.907,4.777-0.134,10.235,4.217,12.978l56.375,35.549
		l16.391,64.597c1.265,4.986,5.925,8.365,11.039,8.021l66.501-4.375l51.229,42.629c1.978,1.645,4.4,2.468,6.822,2.468
		s4.846-0.823,6.822-2.468l51.227-42.629l66.505,4.375c5.121,0.338,9.775-3.037,11.04-8.021l16.385-64.597l56.377-35.549
		c4.351-2.743,6.124-8.202,4.217-12.978L443.862,223.763z M392.998,318.412c-2.313,1.458-3.978,3.75-4.65,6.4l-15.25,60.121
		l-61.897-4.071c-2.735-0.18-5.421,0.697-7.523,2.445L256,422.98l-47.68-39.674c-1.922-1.599-4.337-2.468-6.822-2.468
		c-0.233,0-0.467,0.007-0.7,0.022l-61.893,4.071l-15.256-60.121c-0.672-2.651-2.336-4.942-4.649-6.4l-52.471-33.086l23-57.608
		c1.013-2.54,1.013-5.371,0-7.91l-22.999-57.607l52.468-33.087c2.313-1.458,3.978-3.749,4.649-6.4l15.256-60.12l61.893,4.07
		c2.737,0.188,5.421-0.697,7.523-2.445l47.68-39.674l47.678,39.674c2.102,1.748,4.787,2.633,7.523,2.445l61.897-4.07l15.25,60.121
		c0.673,2.65,2.337,4.942,4.65,6.4l52.471,33.087l-23.001,57.607c-1.013,2.54-1.013,5.371,0,7.91l23.001,57.608L392.998,318.412z"/>
	<path style="fill:#000003;" d="M157.642,118.626c0.889,0.228,1.779,0.336,2.655,0.336c4.755,0,9.09-3.202,10.325-8.021l0.883-3.445
		l43.489,2.858c2.725,0.176,5.42-0.697,7.522-2.445L256,80.047l33.482,27.861c2.102,1.748,4.786,2.621,7.522,2.445l52.324-3.438
		c5.88-0.386,10.331-5.465,9.945-11.343c-0.386-5.878-5.451-10.336-11.343-9.945l-48.074,3.158l-37.032-30.814
		c-3.954-3.292-9.692-3.29-13.646,0l-37.033,30.814l-48.074-3.158c-5.109-0.332-9.756,3.023-11.032,7.996l-3.082,12.022
		C148.495,111.352,151.934,117.163,157.642,118.626z"/>
	<path style="fill:#000003;" d="M149.662,150.119c0.889,0.228,1.779,0.336,2.655,0.336c4.755,0,9.09-3.202,10.325-8.021l0.996-3.886
		c1.462-5.707-1.978-11.518-7.684-12.98c-5.711-1.468-11.518,1.978-12.98,7.684l-0.996,3.886
		C140.515,142.845,143.955,148.656,149.662,150.119z"/>
	<path style="fill:#000003;" d="M362.344,297.408c-5.71-1.469-11.52,1.972-12.986,7.677l-0.998,3.885
		c-1.466,5.707,1.972,11.52,7.677,12.986c0.891,0.229,1.784,0.338,2.661,0.338c4.752,0,9.087-3.199,10.324-8.015l0.998-3.885
		C371.487,304.687,368.05,298.874,362.344,297.408z"/>
	<path style="fill:#000003;" d="M354.356,328.894c-5.705-1.461-11.518,1.981-12.98,7.686l-0.883,3.449l-43.488-2.862
		c-2.736-0.178-5.421,0.697-7.523,2.445l-33.482,27.859l-33.483-27.859c-2.102-1.748-4.797-2.623-7.523-2.445l-52.324,3.443
		c-5.88,0.386-10.331,5.466-9.944,11.344c0.387,5.88,5.489,10.333,11.344,9.944l48.074-3.164l37.032,30.813
		c1.978,1.646,4.4,2.467,6.822,2.467c2.422,0,4.846-0.822,6.822-2.467l37.031-30.813l48.074,3.164
		c5.12,0.335,9.759-3.023,11.034-7.997l3.082-12.027C363.504,336.168,360.063,330.357,354.356,328.894z"/>
	<path style="fill:#000003;" d="M362.667,490.666H149.333c-5.89,0-10.667,4.777-10.667,10.667S143.443,512,149.333,512h213.334
		c5.89,0,10.667-4.777,10.667-10.667S368.558,490.666,362.667,490.666z"/>
	<path style="fill:#000003;" d="M373.219,170.781h-44.124c-10.605,0-15.912,5.503-15.912,16.51v85.1
		c0,3.004,1.302,4.501,3.904,4.501h12.606c2.801,0,4.204-1.497,4.204-4.501v-37.673h33.168c2.802,0,4.204-1.202,4.204-3.603v-10.504
		c0-2.704-1.403-4.054-4.204-4.054h-33.168v-22.062c0-3.806,1.602-5.708,4.803-5.708h34.519c2.802,0,4.204-1.15,4.204-3.45v-10.509
		C377.424,172.129,376.021,170.781,373.219,170.781z"/>
	<path style="fill:#000003;" d="M264.28,188.789h34.521c2.801,0,4.203-1.15,4.203-3.45V174.83c0-2.7-1.402-4.049-4.203-4.049
		h-44.126c-10.605,0-15.911,5.503-15.911,16.51v85.1c0,3.001,1.302,4.501,3.904,4.501h12.606c2.801,0,4.204-1.497,4.204-4.501
		v-37.673h33.168c2.802,0,4.204-1.202,4.204-3.603v-10.504c0-2.704-1.403-4.054-4.204-4.054h-33.168v-22.062
		C259.478,190.689,261.079,188.789,264.28,188.789z"/>
	<path style="fill:#000003;" d="M179.605,278.693c8.203,0,15.058-0.85,20.561-2.551s10.256-4.626,14.258-8.781
		c4.003-4.149,6.906-9.852,8.704-17.109c1.801-7.252,2.702-16.333,2.702-27.24c0-9.205-0.623-17.009-1.875-23.416
		c-1.25-6.402-2.978-11.606-5.178-15.608c-2.202-4.002-5.254-7.132-9.156-9.385c-3.902-2.247-8.056-3.775-12.459-4.573
		c-4.401-0.804-9.854-1.202-16.359-1.202c-7.105,0-13.258,0.75-18.462,2.252c-5.204,1.501-10.008,4.153-14.409,7.955
		c-4.402,3.802-7.729,9.379-9.981,16.732c-2.25,7.356-3.377,16.484-3.377,27.392s0.875,19.986,2.627,27.244
		c1.75,7.252,4.579,12.956,8.479,17.109c3.902,4.153,8.531,7.053,13.883,8.706C164.919,277.869,171.598,278.693,179.605,278.693z
		 M155.888,223.159c0-9.904,1.004-17.634,3.002-23.185c2.003-5.556,4.653-9.259,7.956-11.107c3.3-1.853,7.755-2.779,13.357-2.779
		c6.204,0,10.932,0.899,14.185,2.7c3.252,1.801,5.702,5.377,7.355,10.734c1.651,5.353,2.476,13.281,2.476,23.79
		c0,8.104-0.525,14.731-1.577,19.887c-1.05,5.152-2.702,9.028-4.953,11.632c-2.252,2.601-4.73,4.353-7.43,5.252
		c-2.702,0.902-6.154,1.35-10.356,1.35c-4.203,0-7.68-0.474-10.432-1.424c-2.751-0.951-5.201-2.778-7.353-5.478
		c-2.153-2.703-3.728-6.605-4.729-11.706C156.389,237.721,155.888,231.166,155.888,223.159z"/>
</g>
<g>
</g>
<g>
</g>
<g>
</g>
<g>
</g>
<g>
</g>
<g>
</g>
<g>
</g>
<g>
</g>
<g>
</g>
<g>
</g>
<g>
</g>
<g>
</g>
<g>
</g>
<g>
</g>
<g>
</g>
</svg>
